<svg width="21" height="17" viewBox="0 0 21 17" fill="none" xmlns="http://www.w3.org/2000/svg">
<path d="M12.7872 7.10589C12.7315 7.02454 12.6923 6.933 12.672 6.8365C12.6517 6.74001 12.6506 6.64045 12.6688 6.54353C12.687 6.44661 12.7241 6.35424 12.778 6.27169C12.832 6.18914 12.9017 6.11803 12.9831 6.06245L19.3263 1.72182C19.4906 1.62018 19.6877 1.58585 19.8767 1.626C20.0657 1.66615 20.2319 1.77768 20.3407 1.93734C20.4495 2.09701 20.4924 2.29249 20.4606 2.48305C20.4288 2.67362 20.3247 2.84456 20.17 2.96026L13.8259 7.30089C13.7016 7.38661 13.5541 7.4324 13.4031 7.43214C13.2817 7.43167 13.1622 7.40174 13.055 7.34491C12.9477 7.28808 12.8558 7.20606 12.7872 7.10589ZM20.3688 15.0831C20.2564 15.2472 20.0834 15.3599 19.8879 15.3965C19.6924 15.433 19.4904 15.3904 19.3263 15.2781L10.75 9.40932L6.7647 12.1356C7.06877 12.9078 7.07767 13.7649 6.78971 14.5432C6.50175 15.3216 5.93711 15.9665 5.20368 16.3549C4.47025 16.7432 3.61945 16.8477 2.81384 16.6484C2.00824 16.4491 1.30431 15.9599 0.836552 15.2744C0.368799 14.5889 0.170019 13.7551 0.278192 12.9323C0.386365 12.1094 0.793907 11.3553 1.42295 10.814C2.05199 10.2727 2.85843 9.98209 3.68818 9.99777C4.51793 10.0135 5.31281 10.3343 5.92095 10.899L9.42157 8.49995L5.91626 6.10089C5.31018 6.66269 4.5184 6.98157 3.69212 6.99663C2.86585 7.0117 2.06297 6.7219 1.43681 6.18257C0.81065 5.64324 0.405077 4.89217 0.29754 4.07278C0.190003 3.2534 0.388037 2.42311 0.853826 1.74047C1.31961 1.05783 2.02052 0.57067 2.8227 0.372017C3.62488 0.173364 4.47213 0.277137 5.20265 0.66352C5.93318 1.0499 6.49579 1.69182 6.78306 2.4667C7.07033 3.24158 7.06212 4.09511 6.76001 4.86432L20.1663 14.0396C20.2482 14.0947 20.3185 14.1654 20.3731 14.2477C20.4277 14.3301 20.4654 14.4223 20.4843 14.5193C20.5031 14.6162 20.5026 14.716 20.4827 14.8127C20.4629 14.9095 20.4242 15.0013 20.3688 15.0831ZM5.50001 13.3749C5.5001 12.9412 5.34978 12.5207 5.07465 12.1854C4.79952 11.85 4.41661 11.6204 3.99117 11.5356C3.56572 11.4509 3.12407 11.5164 2.74145 11.7208C2.35884 11.9252 2.05894 12.256 1.89286 12.6567C1.72678 13.0574 1.7048 13.5034 1.83065 13.9185C1.9565 14.3337 2.22241 14.6923 2.58305 14.9334C2.9437 15.1744 3.37678 15.283 3.80849 15.2405C4.24021 15.1981 4.64385 15.0073 4.95063 14.7006C5.12538 14.527 5.26393 14.3204 5.35823 14.0928C5.45254 13.8653 5.50073 13.6213 5.50001 13.3749ZM4.95063 4.94964C5.21291 4.68744 5.39155 4.35334 5.46394 3.98961C5.53633 3.62588 5.49923 3.24885 5.35734 2.90621C5.21544 2.56357 4.97512 2.2707 4.66676 2.06464C4.35841 1.85859 3.99587 1.74861 3.62501 1.74861C3.25414 1.74861 2.89161 1.85859 2.58325 2.06464C2.2749 2.2707 2.03458 2.56357 1.89268 2.90621C1.75078 3.24885 1.71368 3.62588 1.78608 3.98961C1.85847 4.35334 2.0371 4.68744 2.29938 4.94964C2.47253 5.12538 2.6789 5.26494 2.90647 5.3602C3.13405 5.45545 3.3783 5.50451 3.62501 5.50451C3.87172 5.50451 4.11596 5.45545 4.34354 5.3602C4.57112 5.26494 4.77748 5.12538 4.95063 4.94964Z" fill="#AFDEE9"/>
</svg>
