<svg width="24" height="25" viewBox="0 0 24 25" fill="none" xmlns="http://www.w3.org/2000/svg">
<path d="M12 2.75C10.0716 2.75 8.18657 3.32183 6.58319 4.39317C4.97981 5.46451 3.73013 6.98726 2.99217 8.76884C2.25422 10.5504 2.06113 12.5108 2.43734 14.4021C2.81355 16.2934 3.74214 18.0307 5.10571 19.3943C6.46927 20.7579 8.20655 21.6865 10.0979 22.0627C11.9892 22.4389 13.9496 22.2458 15.7312 21.5078C17.5127 20.7699 19.0355 19.5202 20.1068 17.9168C21.1782 16.3134 21.75 14.4284 21.75 12.5C21.7473 9.91498 20.7192 7.43661 18.8913 5.60872C17.0634 3.78084 14.585 2.75273 12 2.75ZM12 20.75C10.3683 20.75 8.77325 20.2661 7.41654 19.3596C6.05984 18.4531 5.00241 17.1646 4.37799 15.6571C3.75357 14.1496 3.59019 12.4908 3.90852 10.8905C4.22685 9.29016 5.01258 7.82015 6.16637 6.66637C7.32015 5.51259 8.79016 4.72685 10.3905 4.40852C11.9908 4.09019 13.6496 4.25357 15.1571 4.87799C16.6646 5.50242 17.9531 6.55984 18.8596 7.91655C19.7661 9.27325 20.25 10.8683 20.25 12.5C20.2475 14.6873 19.3775 16.7843 17.8309 18.3309C16.2843 19.8775 14.1873 20.7475 12 20.75ZM7.5 10.625C7.5 10.4025 7.56598 10.185 7.68959 9.99998C7.81321 9.81498 7.98891 9.67078 8.19448 9.58564C8.40004 9.50049 8.62625 9.47821 8.84447 9.52162C9.0627 9.56502 9.26316 9.67217 9.42049 9.8295C9.57783 9.98684 9.68497 10.1873 9.72838 10.4055C9.77179 10.6238 9.74951 10.85 9.66436 11.0555C9.57921 11.2611 9.43502 11.4368 9.25001 11.5604C9.06501 11.684 8.8475 11.75 8.625 11.75C8.32663 11.75 8.04048 11.6315 7.8295 11.4205C7.61852 11.2095 7.5 10.9234 7.5 10.625ZM16.5 10.625C16.5 10.8475 16.434 11.065 16.3104 11.25C16.1868 11.435 16.0111 11.5792 15.8055 11.6644C15.5999 11.7495 15.3737 11.7718 15.1555 11.7284C14.9373 11.685 14.7368 11.5778 14.5795 11.4205C14.4222 11.2632 14.315 11.0627 14.2716 10.8445C14.2282 10.6262 14.2505 10.4 14.3356 10.1945C14.4208 9.98891 14.565 9.81321 14.75 9.6896C14.935 9.56598 15.1525 9.5 15.375 9.5C15.6734 9.5 15.9595 9.61853 16.1705 9.8295C16.3815 10.0405 16.5 10.3266 16.5 10.625ZM16.3997 15.125C15.435 16.7928 13.8309 17.75 12 17.75C10.1691 17.75 8.56593 16.7937 7.60125 15.125C7.54698 15.0396 7.51054 14.9442 7.49413 14.8444C7.47771 14.7446 7.48165 14.6425 7.50572 14.5442C7.52978 14.446 7.57347 14.3536 7.63416 14.2727C7.69485 14.1917 7.77128 14.1239 7.85885 14.0733C7.94642 14.0227 8.04333 13.9903 8.14375 13.9781C8.24416 13.9659 8.346 13.9742 8.44315 14.0023C8.5403 14.0305 8.63074 14.0781 8.70903 14.1421C8.78733 14.2062 8.85186 14.2854 8.89875 14.375C9.59906 15.5853 10.6997 16.25 12 16.25C13.3003 16.25 14.4009 15.5844 15.1003 14.375C15.1998 14.2027 15.3636 14.077 15.5558 14.0254C15.7479 13.9739 15.9527 14.0009 16.125 14.1003C16.2973 14.1998 16.423 14.3636 16.4746 14.5558C16.5261 14.7479 16.4991 14.9527 16.3997 15.125Z" fill="#AFDEE9"/>
</svg>
