<svg width="24" height="25" viewBox="0 0 24 25" fill="none" xmlns="http://www.w3.org/2000/svg">
<path d="M4.50656 10.25H19.4934C19.718 10.2511 19.9399 10.2019 20.1428 10.1058C20.3458 10.0097 20.5245 9.86933 20.666 9.69496C20.8074 9.52058 20.9079 9.31668 20.9601 9.09829C21.0122 8.87989 21.0146 8.65259 20.9672 8.43313C20.2706 5.14063 16.5 2.75 12 2.75C7.5 2.75 3.72937 5.14063 3.03281 8.43313C2.98538 8.65259 2.98782 8.87989 3.03995 9.09829C3.09208 9.31668 3.19257 9.52058 3.33401 9.69496C3.47546 9.86933 3.65424 10.0097 3.85718 10.1058C4.06012 10.2019 4.28204 10.2511 4.50656 10.25ZM12 4.25C15.7331 4.25 18.9572 6.18219 19.4934 8.75H4.50656L4.5 8.74344C5.04281 6.18219 8.26688 4.25 12 4.25ZM21.4931 14.795L17.6372 16.2013L14.1562 14.8034C13.9775 14.732 13.7781 14.732 13.5994 14.8034L10.1306 16.1919L6.65625 14.8034C6.4852 14.7351 6.29499 14.7321 6.12188 14.795L1.99687 16.295C1.82253 16.3717 1.68392 16.5119 1.60918 16.6871C1.53444 16.8624 1.52916 17.0594 1.59442 17.2384C1.65968 17.4173 1.79058 17.5648 1.96057 17.6507C2.13055 17.7367 2.32687 17.7548 2.50969 17.7013L3.75 17.2522V17.75C3.75 18.7446 4.14509 19.6984 4.84835 20.4016C5.55161 21.1049 6.50544 21.5 7.5 21.5H16.5C17.4946 21.5 18.4484 21.1049 19.1516 20.4016C19.8549 19.6984 20.25 18.7446 20.25 17.75V16.8434L22.0059 16.205C22.1044 16.1762 22.1959 16.1275 22.2748 16.0619C22.3537 15.9963 22.4183 15.9152 22.4646 15.8237C22.5109 15.7321 22.5379 15.632 22.544 15.5296C22.55 15.4272 22.535 15.3246 22.4999 15.2282C22.4647 15.1319 22.4102 15.0437 22.3396 14.9693C22.269 14.8948 22.1839 14.8356 22.0896 14.7953C21.9952 14.7551 21.8936 14.7346 21.791 14.7352C21.6884 14.7358 21.587 14.7574 21.4931 14.7987V14.795ZM18.75 17.75C18.75 18.3467 18.5129 18.919 18.091 19.341C17.669 19.7629 17.0967 20 16.5 20H7.5C6.90326 20 6.33097 19.7629 5.90901 19.341C5.48705 18.919 5.25 18.3467 5.25 17.75V16.7075L6.36281 16.3025L9.84375 17.6966C10.0225 17.768 10.2219 17.768 10.4006 17.6966L13.8694 16.3081L17.3381 17.6966C17.5092 17.7649 17.6994 17.7679 17.8725 17.705L18.7416 17.3891L18.75 17.75ZM1.5 12.5C1.5 12.3011 1.57902 12.1103 1.71967 11.9697C1.86032 11.829 2.05109 11.75 2.25 11.75H21.75C21.9489 11.75 22.1397 11.829 22.2803 11.9697C22.421 12.1103 22.5 12.3011 22.5 12.5C22.5 12.6989 22.421 12.8897 22.2803 13.0303C22.1397 13.171 21.9489 13.25 21.75 13.25H2.25C2.05109 13.25 1.86032 13.171 1.71967 13.0303C1.57902 12.8897 1.5 12.6989 1.5 12.5Z" fill="#AFDEE9"/>
</svg>
