<svg width="20" height="21" viewBox="0 0 20 21" fill="none" xmlns="http://www.w3.org/2000/svg">
<path d="M10.71 0.789939C10.617 0.696211 10.5064 0.621816 10.3846 0.571048C10.2627 0.520279 10.132 0.494141 10 0.494141C9.86799 0.494141 9.73728 0.520279 9.61542 0.571048C9.49356 0.621816 9.38296 0.696211 9.29 0.789939L0.29 9.78994C0.196272 9.8829 0.121877 9.9935 0.0711086 10.1154C0.0203399 10.2372 -0.00579834 10.3679 -0.00579834 10.4999C-0.00579834 10.632 0.0203399 10.7627 0.0711086 10.8845C0.121877 11.0064 0.196272 11.117 0.29 11.2099C0.38344 11.3026 0.494256 11.3759 0.616093 11.4257C0.737931 11.4755 0.868393 11.5007 1 11.4999H2V18.4999C2 19.0304 2.21071 19.5391 2.58579 19.9142C2.96086 20.2892 3.46957 20.4999 4 20.4999H16C16.5304 20.4999 17.0391 20.2892 17.4142 19.9142C17.7893 19.5391 18 19.0304 18 18.4999V11.4999H19C19.2652 11.4999 19.5196 11.3946 19.7071 11.207C19.8946 11.0195 20 10.7652 20 10.4999C20.0008 10.3683 19.9755 10.2379 19.9258 10.116C19.876 9.99419 19.8027 9.88338 19.71 9.78994L10.71 0.789939ZM4 18.4999V8.90994L10 2.90994L16 8.90994V18.4999H4Z" fill="#AFDEE9"/>
</svg>
