<svg width="1920" height="1030" viewBox="0 0 1920 1030" fill="none" xmlns="http://www.w3.org/2000/svg">
<g clip-path="url(#clip0_1_56)">
<g clip-path="url(#clip1_1_56)">
<g opacity="0.25" filter="url(#filter0_f_1_56)">
<path d="M960 627.682C1229.59 627.682 1448.13 521.631 1448.13 390.81C1448.13 259.99 1229.59 153.939 960 153.939C690.415 153.939 471.872 259.99 471.872 390.81C471.872 521.631 690.415 627.682 960 627.682Z" fill="url(#paint0_radial_1_56)"/>
</g>
<g opacity="0.25" filter="url(#filter1_f_1_56)">
<path d="M960 876.061C1308.5 876.061 1591.02 788.258 1591.02 679.947C1591.02 571.636 1308.5 483.833 960 483.833C611.499 483.833 328.982 571.636 328.982 679.947C328.982 788.258 611.499 876.061 960 876.061Z" fill="url(#paint1_radial_1_56)"/>
</g>
<g opacity="0.25" filter="url(#filter2_f_1_56)">
<path d="M1245.51 570.142C1437.61 570.142 1590.98 518.405 1588.06 454.584C1585.14 390.762 1427.05 339.025 1234.95 339.025C1042.85 339.025 889.481 390.762 892.398 454.584C895.315 518.405 1053.41 570.142 1245.51 570.142Z" fill="url(#paint2_radial_1_56)"/>
</g>
<g style="mix-blend-mode:screen" filter="url(#filter3_f_1_56)">
<path d="M719.772 551.921C933.481 551.921 1106.73 512.635 1106.73 464.173C1106.73 415.711 933.481 376.425 719.772 376.425C506.063 376.425 332.818 415.711 332.818 464.173C332.818 512.635 506.063 551.921 719.772 551.921Z" fill="url(#paint3_radial_1_56)"/>
<path d="M719.772 552.401C826.651 552.401 923.427 542.578 993.496 526.688C1028.53 518.744 1056.91 509.279 1076.54 498.752C1086.36 493.488 1094.02 487.947 1099.22 482.178C1104.43 476.408 1107.21 470.384 1107.21 464.173C1107.21 457.963 1104.43 451.938 1099.22 446.168C1094.02 440.4 1086.36 434.859 1076.54 429.595C1056.91 419.068 1028.53 409.603 993.496 401.658C923.427 385.769 826.651 375.946 719.772 375.946C612.893 375.946 516.117 385.769 446.049 401.658C411.017 409.603 382.636 419.068 363.001 429.595C353.182 434.859 345.529 440.4 340.323 446.168C335.116 451.938 332.339 457.963 332.339 464.173C332.339 470.384 335.116 476.408 340.323 482.178C345.529 487.947 353.182 493.488 363.001 498.752C382.636 509.279 411.017 518.744 446.049 526.688C516.117 542.578 612.893 552.401 719.772 552.401Z" stroke="url(#paint4_linear_1_56)" stroke-width="0.958993"/>
</g>
<mask id="mask0_1_56" style="mask-type:alpha" maskUnits="userSpaceOnUse" x="459" y="28" width="1006" height="861">
<path d="M459.405 888.528H1464.43V28.3108H459.405V888.528Z" fill="url(#paint5_linear_1_56)"/>
</mask>
<g mask="url(#mask0_1_56)">
<g filter="url(#filter4_f_1_56)">
<path d="M1060.66 812.256C1265.43 756.657 1386.95 543.372 1332.08 335.872C1277.22 128.371 1066.74 5.23151 861.97 60.8311C657.202 116.431 535.684 329.716 590.551 537.216C645.418 744.716 855.895 867.856 1060.66 812.256Z" stroke="url(#paint6_linear_1_56)" stroke-width="7.81231"/>
</g>
<g filter="url(#filter5_f_1_56)">
<path d="M1072.87 808.943C1277.64 753.343 1399.16 540.058 1344.3 332.558C1289.42 125.058 1078.95 1.91804 874.182 57.5176C669.413 113.117 547.895 326.401 602.762 533.903C657.629 741.403 868.105 864.542 1072.87 808.943Z" stroke="url(#paint7_linear_1_56)" stroke-width="7.81231"/>
</g>
<g filter="url(#filter6_f_1_56)">
<path d="M860.096 53.7625C1068.72 -2.88371 1283.16 122.574 1339.06 333.98C1394.96 545.387 1271.16 762.686 1062.53 819.333C853.907 875.978 639.469 750.521 583.568 539.115C527.668 327.708 651.474 110.408 860.096 53.7625Z" stroke="url(#paint8_linear_1_56)" stroke-width="7.81231"/>
</g>
<g filter="url(#filter7_f_1_56)">
<path d="M872.313 50.4431C1080.93 -6.20308 1295.37 119.255 1351.27 330.661C1407.17 542.068 1283.36 759.367 1074.74 816.013C866.122 872.659 651.685 747.201 595.784 535.795C539.884 324.389 663.69 107.089 872.313 50.4431Z" stroke="url(#paint9_linear_1_56)" stroke-width="7.81231"/>
</g>
<g filter="url(#filter8_f_1_56)">
<path d="M1055.55 821.228C1264.17 764.582 1387.98 547.283 1332.08 335.876C1276.18 124.47 1061.74 -0.988066 853.12 55.658C644.498 112.304 520.692 329.604 576.592 541.01C632.492 752.416 846.931 877.875 1055.55 821.228Z" stroke="url(#paint10_linear_1_56)" stroke-width="7.81231"/>
</g>
<path d="M1067.76 817.907C1276.39 761.261 1400.2 543.962 1344.29 332.555C1288.39 121.149 1073.95 -4.30904 865.331 52.3372C656.709 108.983 532.903 326.282 588.803 537.689C644.703 749.095 859.142 874.553 1067.76 817.907Z" stroke="url(#paint11_linear_1_56)" stroke-width="7.81231"/>
<g filter="url(#filter9_f_1_56)">
<path d="M849.755 64.1481C1058.38 7.50188 1272.81 132.96 1328.71 344.366C1384.61 555.773 1260.81 773.072 1052.19 829.718C843.566 886.364 629.127 760.906 573.227 549.5C517.327 338.093 641.133 120.794 849.755 64.1481Z" stroke="url(#paint12_linear_1_56)" stroke-width="7.81231"/>
</g>
<path d="M861.968 60.8332C1070.59 4.18713 1285.03 129.645 1340.93 341.051C1396.83 552.457 1273.03 769.757 1064.4 826.403C855.778 883.049 641.34 757.592 585.439 546.186C529.539 334.779 653.345 117.479 861.968 60.8332Z" stroke="url(#paint13_linear_1_56)" stroke-width="10.4164"/>
<g filter="url(#filter10_f_1_56)">
<path d="M851.67 60.7842C1061.74 3.74555 1277.67 130.072 1333.95 342.944C1390.23 555.815 1265.57 774.62 1055.51 831.659C845.438 888.697 629.514 762.369 573.226 549.499C516.939 336.628 641.603 117.823 851.67 60.7842Z" stroke="url(#paint14_linear_1_56)" stroke-width="7.81231"/>
</g>
<path d="M961.918 -14.6953C708.304 -14.6953 502.709 190.9 502.709 444.514C502.709 698.128 708.304 903.723 961.918 903.723C1215.53 903.723 1421.13 698.128 1421.13 444.514C1421.13 190.9 1215.53 -14.6953 961.918 -14.6953Z" stroke="url(#paint15_linear_1_56)" stroke-opacity="0.15" stroke-width="0.958993"/>
<path d="M1248.31 85.5325C1309.05 134.059 1357.22 197.682 1387.1 270.719" stroke="url(#paint16_linear_1_56)" stroke-opacity="0.35" stroke-width="0.958993" stroke-linecap="round"/>
<path d="M961.918 -68.5476C678.562 -68.5476 448.856 161.158 448.856 444.514C448.856 727.87 678.562 957.575 961.918 957.575C1245.27 957.575 1474.98 727.87 1474.98 444.514C1474.98 161.158 1245.27 -68.5476 961.918 -68.5476Z" stroke="url(#paint17_linear_1_56)" stroke-opacity="0.15" stroke-width="0.958993"/>
<path d="M1397.51 173.296C1424.95 217.263 1445.91 265.685 1459.07 317.228" stroke="url(#paint18_linear_1_56)" stroke-opacity="0.35" stroke-width="0.958993" stroke-linecap="round"/>
<path d="M580.083 101.82C525.492 162.607 485.204 236.501 464.52 318.207" stroke="url(#paint19_linear_1_56)" stroke-opacity="0.35" stroke-width="0.958993" stroke-linecap="round"/>
</g>
</g>
</g>
<defs>
<filter id="filter0_f_1_56" x="318.433" y="0.5" width="1283.13" height="780.621" filterUnits="userSpaceOnUse" color-interpolation-filters="sRGB">
<feFlood flood-opacity="0" result="BackgroundImageFix"/>
<feBlend mode="normal" in="SourceGraphic" in2="BackgroundImageFix" result="shape"/>
<feGaussianBlur stdDeviation="76.7195" result="effect1_foregroundBlur_1_56"/>
</filter>
<filter id="filter1_f_1_56" x="175.543" y="330.394" width="1568.91" height="699.106" filterUnits="userSpaceOnUse" color-interpolation-filters="sRGB">
<feFlood flood-opacity="0" result="BackgroundImageFix"/>
<feBlend mode="normal" in="SourceGraphic" in2="BackgroundImageFix" result="shape"/>
<feGaussianBlur stdDeviation="76.7195" result="effect1_foregroundBlur_1_56"/>
</filter>
<filter id="filter2_f_1_56" x="777.278" y="223.945" width="925.902" height="461.276" filterUnits="userSpaceOnUse" color-interpolation-filters="sRGB">
<feFlood flood-opacity="0" result="BackgroundImageFix"/>
<feBlend mode="normal" in="SourceGraphic" in2="BackgroundImageFix" result="shape"/>
<feGaussianBlur stdDeviation="57.5396" result="effect1_foregroundBlur_1_56"/>
</filter>
<filter id="filter3_f_1_56" x="178.42" y="222.027" width="1082.7" height="484.292" filterUnits="userSpaceOnUse" color-interpolation-filters="sRGB">
<feFlood flood-opacity="0" result="BackgroundImageFix"/>
<feBlend mode="normal" in="SourceGraphic" in2="BackgroundImageFix" result="shape"/>
<feGaussianBlur stdDeviation="76.7195" result="effect1_foregroundBlur_1_56"/>
</filter>
<filter id="filter4_f_1_56" x="563.054" y="33.1562" width="796.525" height="806.775" filterUnits="userSpaceOnUse" color-interpolation-filters="sRGB">
<feFlood flood-opacity="0" result="BackgroundImageFix"/>
<feBlend mode="normal" in="SourceGraphic" in2="BackgroundImageFix" result="shape"/>
<feGaussianBlur stdDeviation="5.2082" result="effect1_foregroundBlur_1_56"/>
</filter>
<filter id="filter5_f_1_56" x="575.265" y="29.8428" width="796.527" height="806.775" filterUnits="userSpaceOnUse" color-interpolation-filters="sRGB">
<feFlood flood-opacity="0" result="BackgroundImageFix"/>
<feBlend mode="normal" in="SourceGraphic" in2="BackgroundImageFix" result="shape"/>
<feGaussianBlur stdDeviation="5.2082" result="effect1_foregroundBlur_1_56"/>
</filter>
<filter id="filter6_f_1_56" x="555.823" y="25.8363" width="810.983" height="821.422" filterUnits="userSpaceOnUse" color-interpolation-filters="sRGB">
<feFlood flood-opacity="0" result="BackgroundImageFix"/>
<feBlend mode="normal" in="SourceGraphic" in2="BackgroundImageFix" result="shape"/>
<feGaussianBlur stdDeviation="5.2082" result="effect1_foregroundBlur_1_56"/>
</filter>
<filter id="filter7_f_1_56" x="568.039" y="22.517" width="810.975" height="821.422" filterUnits="userSpaceOnUse" color-interpolation-filters="sRGB">
<feFlood flood-opacity="0" result="BackgroundImageFix"/>
<feBlend mode="normal" in="SourceGraphic" in2="BackgroundImageFix" result="shape"/>
<feGaussianBlur stdDeviation="5.2082" result="effect1_foregroundBlur_1_56"/>
</filter>
<filter id="filter8_f_1_56" x="548.847" y="27.7319" width="810.977" height="821.422" filterUnits="userSpaceOnUse" color-interpolation-filters="sRGB">
<feFlood flood-opacity="0" result="BackgroundImageFix"/>
<feBlend mode="normal" in="SourceGraphic" in2="BackgroundImageFix" result="shape"/>
<feGaussianBlur stdDeviation="5.2082" result="effect1_foregroundBlur_1_56"/>
</filter>
<filter id="filter9_f_1_56" x="545.482" y="36.2219" width="810.976" height="821.422" filterUnits="userSpaceOnUse" color-interpolation-filters="sRGB">
<feFlood flood-opacity="0" result="BackgroundImageFix"/>
<feBlend mode="normal" in="SourceGraphic" in2="BackgroundImageFix" result="shape"/>
<feGaussianBlur stdDeviation="5.2082" result="effect1_foregroundBlur_1_56"/>
</filter>
<filter id="filter10_f_1_56" x="545.389" y="32.7638" width="816.398" height="826.915" filterUnits="userSpaceOnUse" color-interpolation-filters="sRGB">
<feFlood flood-opacity="0" result="BackgroundImageFix"/>
<feBlend mode="normal" in="SourceGraphic" in2="BackgroundImageFix" result="shape"/>
<feGaussianBlur stdDeviation="5.2082" result="effect1_foregroundBlur_1_56"/>
</filter>
<radialGradient id="paint0_radial_1_56" cx="0" cy="0" r="1" gradientUnits="userSpaceOnUse" gradientTransform="translate(960 343.82) rotate(90) scale(406.134 727.032)">
<stop/>
<stop offset="1" stop-color="#3BA2ED"/>
</radialGradient>
<radialGradient id="paint1_radial_1_56" cx="0" cy="0" r="1" gradientUnits="userSpaceOnUse" gradientTransform="translate(960 649.775) rotate(90) scale(344.192 415.724)">
<stop offset="0.300532" stop-color="#1C2140"/>
<stop offset="1" stop-color="#3BA2ED"/>
</radialGradient>
<radialGradient id="paint2_radial_1_56" cx="0" cy="0" r="1" gradientUnits="userSpaceOnUse" gradientTransform="translate(1253.21 362.662) rotate(76.9243) scale(213.003 571.512)">
<stop/>
<stop offset="0.763129" stop-color="#267851"/>
</radialGradient>
<radialGradient id="paint3_radial_1_56" cx="0" cy="0" r="1" gradientUnits="userSpaceOnUse" gradientTransform="translate(720.252 424.049) rotate(119.733) scale(129.553 247.9)">
<stop/>
<stop offset="0.504467" stop-color="#081560"/>
</radialGradient>
<linearGradient id="paint4_linear_1_56" x1="332.818" y1="376.425" x2="335.34" y2="554.457" gradientUnits="userSpaceOnUse">
<stop stop-color="#80FFCC"/>
<stop offset="0.268185" stop-color="#80FFCC" stop-opacity="0"/>
<stop offset="0.817294" stop-color="#80FFCC" stop-opacity="0"/>
<stop offset="1" stop-color="#80FFCC"/>
</linearGradient>
<linearGradient id="paint5_linear_1_56" x1="961.918" y1="569.662" x2="961.918" y2="28.3107" gradientUnits="userSpaceOnUse">
<stop stop-opacity="0"/>
<stop offset="0.33999" stop-opacity="0.709557"/>
<stop offset="0.700737"/>
<stop offset="1"/>
</linearGradient>
<linearGradient id="paint6_linear_1_56" x1="1374.66" y1="242.669" x2="916.839" y2="-327.687" gradientUnits="userSpaceOnUse">
<stop stop-color="#1935BD"/>
<stop offset="0.674093" stop-color="#029B6B"/>
<stop offset="1" stop-color="#00324B"/>
</linearGradient>
<linearGradient id="paint7_linear_1_56" x1="1386.88" y1="239.355" x2="929.051" y2="-331" gradientUnits="userSpaceOnUse">
<stop stop-color="#1935BD"/>
<stop offset="0.674093" stop-color="#029B6B"/>
<stop offset="1" stop-color="#00324B"/>
</linearGradient>
<linearGradient id="paint8_linear_1_56" x1="1423.48" y1="394.233" x2="1312.88" y2="1134.8" gradientUnits="userSpaceOnUse">
<stop stop-color="#1935BD"/>
<stop offset="0.674093" stop-color="#029B6B"/>
<stop offset="1" stop-color="#00324B"/>
</linearGradient>
<linearGradient id="paint9_linear_1_56" x1="1435.7" y1="390.914" x2="1325.1" y2="1131.48" gradientUnits="userSpaceOnUse">
<stop stop-color="#1935BD"/>
<stop offset="0.674093" stop-color="#029B6B"/>
<stop offset="1" stop-color="#00324B"/>
</linearGradient>
<linearGradient id="paint10_linear_1_56" x1="1375.46" y1="240.919" x2="909.022" y2="-340.173" gradientUnits="userSpaceOnUse">
<stop stop-color="#1935BD"/>
<stop offset="0.674093" stop-color="#029B6B"/>
<stop offset="1" stop-color="#00324B"/>
</linearGradient>
<linearGradient id="paint11_linear_1_56" x1="1387.68" y1="237.599" x2="921.235" y2="-343.493" gradientUnits="userSpaceOnUse">
<stop stop-color="#1935BD"/>
<stop offset="0.674093" stop-color="#029B6B"/>
<stop offset="1" stop-color="#00324B"/>
</linearGradient>
<linearGradient id="paint12_linear_1_56" x1="1413.14" y1="404.62" x2="1302.54" y2="1145.18" gradientUnits="userSpaceOnUse">
<stop stop-color="#1935BD"/>
<stop offset="0.674093" stop-color="#029B6B"/>
<stop offset="1" stop-color="#00324B"/>
</linearGradient>
<linearGradient id="paint13_linear_1_56" x1="1425.35" y1="401.307" x2="1314.75" y2="1141.87" gradientUnits="userSpaceOnUse">
<stop stop-color="#1935BD"/>
<stop offset="0.674093" stop-color="#029B6B"/>
<stop offset="1" stop-color="#00324B"/>
</linearGradient>
<linearGradient id="paint14_linear_1_56" x1="1418.96" y1="403.614" x2="1307.6" y2="1149.31" gradientUnits="userSpaceOnUse">
<stop stop-color="white"/>
<stop offset="0.674093" stop-color="#029B6B"/>
<stop offset="1" stop-color="#00324B"/>
</linearGradient>
<linearGradient id="paint15_linear_1_56" x1="226.514" y1="622.542" x2="888.62" y2="-495.961" gradientUnits="userSpaceOnUse">
<stop stop-color="#4CEAFF"/>
<stop offset="0.815" stop-color="#27B1FF"/>
</linearGradient>
<linearGradient id="paint16_linear_1_56" x1="1412.31" y1="294.727" x2="1208.33" y2="149.658" gradientUnits="userSpaceOnUse">
<stop stop-color="#D9ECF4"/>
<stop offset="0.17" stop-color="#36FFC3"/>
<stop offset="0.545" stop-color="#6CFFC1" stop-opacity="0.55"/>
<stop offset="1" stop-opacity="0"/>
</linearGradient>
<linearGradient id="paint17_linear_1_56" x1="140.271" y1="643.418" x2="880.025" y2="-606.246" gradientUnits="userSpaceOnUse">
<stop stop-color="#4CEAFF"/>
<stop offset="0.674093" stop-color="#27B1FF"/>
<stop offset="1" stop-opacity="0"/>
</linearGradient>
<linearGradient id="paint18_linear_1_56" x1="1459.31" y1="323.592" x2="1420.94" y2="131.156" gradientUnits="userSpaceOnUse">
<stop stop-color="#D9ECF4"/>
<stop offset="0.17" stop-color="#36C6FF"/>
<stop offset="0.545" stop-color="#6CD6FF" stop-opacity="0.55"/>
<stop offset="1" stop-opacity="0"/>
</linearGradient>
<linearGradient id="paint19_linear_1_56" x1="580.053" y1="101.817" x2="445.913" y2="307.432" gradientUnits="userSpaceOnUse">
<stop stop-color="#D9ECF4"/>
<stop offset="0.17" stop-color="#36C6FF"/>
<stop offset="0.545" stop-color="#6CD6FF" stop-opacity="0.55"/>
<stop offset="1" stop-opacity="0"/>
</linearGradient>
<clipPath id="clip0_1_56">
<rect width="1920" height="1029" fill="white" transform="translate(0 0.5)"/>
</clipPath>
<clipPath id="clip1_1_56">
<rect width="1568.91" height="1029" fill="white" transform="translate(175.543 0.5)"/>
</clipPath>
</defs>
</svg>
