<svg width="18" height="17" viewBox="0 0 18 17" fill="none" xmlns="http://www.w3.org/2000/svg">
<path d="M9.59553 2.45223H2.4527C2.01438 2.45223 1.65904 2.80755 1.65904 3.24587V13.1665C1.65904 13.6049 2.01438 13.9602 2.4527 13.9602H6.34302C6.52948 13.9602 6.70998 14.0258 6.85287 14.1456L8.4918 15.5194C8.78543 15.7655 9.21296 15.7668 9.508 15.5224L11.1733 14.1427C11.3156 14.0247 11.4948 13.9602 11.6796 13.9602H15.5479C15.9863 13.9602 16.3416 13.6049 16.3416 13.1665V9.19828M17.1352 4.23794C17.1352 5.66248 15.9804 6.8173 14.5559 6.8173C13.1313 6.8173 11.9765 5.66248 11.9765 4.23794C11.9765 2.8134 13.1313 1.65857 14.5559 1.65857C15.9804 1.65857 17.1352 2.8134 17.1352 4.23794Z" stroke="black" stroke-width="1.42857" stroke-linecap="round"/>
</svg>
