<svg width="21" height="20" viewBox="0 0 21 20" fill="none" xmlns="http://www.w3.org/2000/svg">
<path d="M18.3798 8.90622L5.25484 1.41482C5.0336 1.29071 4.77984 1.23686 4.52727 1.2604C4.27469 1.28395 4.03525 1.38379 3.84077 1.54665C3.64628 1.70951 3.50595 1.92769 3.43841 2.17221C3.37088 2.41673 3.37933 2.676 3.46266 2.9156L5.88453 9.98357C5.88422 9.98616 5.88422 9.98878 5.88453 9.99138C5.88409 9.99397 5.88409 9.99661 5.88453 9.99919L3.46266 17.0828C3.39593 17.2713 3.37538 17.473 3.40275 17.6711C3.43011 17.8691 3.50459 18.0577 3.61992 18.221C3.73525 18.3844 3.88808 18.5176 4.06558 18.6097C4.24308 18.7017 4.44006 18.7498 4.64 18.75C4.85693 18.7494 5.07005 18.6929 5.25875 18.5859L18.3767 11.082C18.5702 10.9736 18.7314 10.8157 18.8437 10.6244C18.956 10.4332 19.0154 10.2155 19.0158 9.99369C19.0162 9.7719 18.9576 9.554 18.846 9.36234C18.7343 9.17069 18.5737 9.01219 18.3806 8.9031L18.3798 8.90622ZM4.64 17.5V17.4929L6.99469 10.625H11.515C11.6808 10.625 11.8397 10.5591 11.9569 10.4419C12.0742 10.3247 12.14 10.1657 12.14 9.99997C12.14 9.83421 12.0742 9.67524 11.9569 9.55803C11.8397 9.44082 11.6808 9.37497 11.515 9.37497H7.00094L4.64469 2.50935L4.64 2.49997L17.765 9.98669L4.64 17.5Z" fill="white"/>
</svg>
