<svg width="21" height="20" viewBox="0 0 21 20" fill="none" xmlns="http://www.w3.org/2000/svg">
<path d="M5.345 7.5V12.5C5.345 12.6658 5.27915 12.8247 5.16194 12.9419C5.04473 13.0592 4.88576 13.125 4.72 13.125C4.55424 13.125 4.39527 13.0592 4.27806 12.9419C4.16085 12.8247 4.095 12.6658 4.095 12.5V7.5C4.095 7.33424 4.16085 7.17527 4.27806 7.05806C4.39527 6.94085 4.55424 6.875 4.72 6.875C4.88576 6.875 5.04473 6.94085 5.16194 7.05806C5.27915 7.17527 5.345 7.33424 5.345 7.5ZM7.845 1.875C7.67924 1.875 7.52027 1.94085 7.40306 2.05806C7.28585 2.17527 7.22 2.33424 7.22 2.5V17.5C7.22 17.6658 7.28585 17.8247 7.40306 17.9419C7.52027 18.0592 7.67924 18.125 7.845 18.125C8.01076 18.125 8.16973 18.0592 8.28694 17.9419C8.40415 17.8247 8.47 17.6658 8.47 17.5V2.5C8.47 2.33424 8.40415 2.17527 8.28694 2.05806C8.16973 1.94085 8.01076 1.875 7.845 1.875ZM10.97 4.375C10.8042 4.375 10.6453 4.44085 10.5281 4.55806C10.4108 4.67527 10.345 4.83424 10.345 5V15C10.345 15.1658 10.4108 15.3247 10.5281 15.4419C10.6453 15.5592 10.8042 15.625 10.97 15.625C11.1358 15.625 11.2947 15.5592 11.4119 15.4419C11.5292 15.3247 11.595 15.1658 11.595 15V5C11.595 4.83424 11.5292 4.67527 11.4119 4.55806C11.2947 4.44085 11.1358 4.375 10.97 4.375ZM14.095 6.875C13.9292 6.875 13.7703 6.94085 13.6531 7.05806C13.5358 7.17527 13.47 7.33424 13.47 7.5V12.5C13.47 12.6658 13.5358 12.8247 13.6531 12.9419C13.7703 13.0592 13.9292 13.125 14.095 13.125C14.2608 13.125 14.4197 13.0592 14.5369 12.9419C14.6542 12.8247 14.72 12.6658 14.72 12.5V7.5C14.72 7.33424 14.6542 7.17527 14.5369 7.05806C14.4197 6.94085 14.2608 6.875 14.095 6.875ZM17.22 5.625C17.0542 5.625 16.8953 5.69085 16.7781 5.80806C16.6608 5.92527 16.595 6.08424 16.595 6.25V13.75C16.595 13.9158 16.6608 14.0747 16.7781 14.1919C16.8953 14.3092 17.0542 14.375 17.22 14.375C17.3858 14.375 17.5447 14.3092 17.6619 14.1919C17.7792 14.0747 17.845 13.9158 17.845 13.75V6.25C17.845 6.08424 17.7792 5.92527 17.6619 5.80806C17.5447 5.69085 17.3858 5.625 17.22 5.625Z" fill="white"/>
</svg>
