<svg width="21" height="20" viewBox="0 0 21 20" fill="none" xmlns="http://www.w3.org/2000/svg">
<path d="M12.255 7.5H8.505C8.33924 7.5 8.18027 7.56585 8.06306 7.68306C7.94585 7.80027 7.88 7.95924 7.88 8.125V11.875C7.88 12.0408 7.94585 12.1997 8.06306 12.3169C8.18027 12.4342 8.33924 12.5 8.505 12.5H12.255C12.4208 12.5 12.5797 12.4342 12.6969 12.3169C12.8142 12.1997 12.88 12.0408 12.88 11.875V8.125C12.88 7.95924 12.8142 7.80027 12.6969 7.68306C12.5797 7.56585 12.4208 7.5 12.255 7.5ZM11.63 11.25H9.13V8.75H11.63V11.25ZM18.505 11.25H17.255V8.75H18.505C18.6708 8.75 18.8297 8.68415 18.9469 8.56694C19.0642 8.44973 19.13 8.29076 19.13 8.125C19.13 7.95924 19.0642 7.80027 18.9469 7.68306C18.8297 7.56585 18.6708 7.5 18.505 7.5H17.255V4.375C17.255 4.04348 17.1233 3.72554 16.8889 3.49112C16.6545 3.2567 16.3365 3.125 16.005 3.125H12.88V1.875C12.88 1.70924 12.8142 1.55027 12.6969 1.43306C12.5797 1.31585 12.4208 1.25 12.255 1.25C12.0892 1.25 11.9303 1.31585 11.8131 1.43306C11.6959 1.55027 11.63 1.70924 11.63 1.875V3.125H9.13V1.875C9.13 1.70924 9.06416 1.55027 8.94695 1.43306C8.82974 1.31585 8.67077 1.25 8.505 1.25C8.33924 1.25 8.18027 1.31585 8.06306 1.43306C7.94585 1.55027 7.88 1.70924 7.88 1.875V3.125H4.755C4.42348 3.125 4.10554 3.2567 3.87112 3.49112C3.6367 3.72554 3.505 4.04348 3.505 4.375V7.5H2.255C2.08924 7.5 1.93027 7.56585 1.81306 7.68306C1.69585 7.80027 1.63 7.95924 1.63 8.125C1.63 8.29076 1.69585 8.44973 1.81306 8.56694C1.93027 8.68415 2.08924 8.75 2.255 8.75H3.505V11.25H2.255C2.08924 11.25 1.93027 11.3158 1.81306 11.4331C1.69585 11.5503 1.63 11.7092 1.63 11.875C1.63 12.0408 1.69585 12.1997 1.81306 12.3169C1.93027 12.4342 2.08924 12.5 2.255 12.5H3.505V15.625C3.505 15.9565 3.6367 16.2745 3.87112 16.5089C4.10554 16.7433 4.42348 16.875 4.755 16.875H7.88V18.125C7.88 18.2908 7.94585 18.4497 8.06306 18.5669C8.18027 18.6842 8.33924 18.75 8.505 18.75C8.67077 18.75 8.82974 18.6842 8.94695 18.5669C9.06416 18.4497 9.13 18.2908 9.13 18.125V16.875H11.63V18.125C11.63 18.2908 11.6959 18.4497 11.8131 18.5669C11.9303 18.6842 12.0892 18.75 12.255 18.75C12.4208 18.75 12.5797 18.6842 12.6969 18.5669C12.8142 18.4497 12.88 18.2908 12.88 18.125V16.875H16.005C16.3365 16.875 16.6545 16.7433 16.8889 16.5089C17.1233 16.2745 17.255 15.9565 17.255 15.625V12.5H18.505C18.6708 12.5 18.8297 12.4342 18.9469 12.3169C19.0642 12.1997 19.13 12.0408 19.13 11.875C19.13 11.7092 19.0642 11.5503 18.9469 11.4331C18.8297 11.3158 18.6708 11.25 18.505 11.25ZM16.005 15.625H4.755V4.375H16.005V11.8648C16.005 11.8648 16.005 11.8719 16.005 11.875C16.005 11.8781 16.005 11.882 16.005 11.8852V15.625Z" fill="white"/>
</svg>
