<svg width="21" height="17" viewBox="0 0 21 17" fill="none" xmlns="http://www.w3.org/2000/svg">
<path fill-rule="evenodd" clip-rule="evenodd" d="M6.85599 0.934446C6.8002 0.925673 6.74349 0.924326 6.68735 0.930446C5.56575 1.05261 3.85895 1.6577 2.85151 2.2041C2.78472 2.24033 2.72492 2.28815 2.67489 2.34535C2.25667 2.82354 1.87725 3.60447 1.57938 4.34247C1.27323 5.10101 1.0197 5.90042 0.875221 6.47805C0.404947 8.35825 0.146641 10.6164 0.113298 12.7567C0.111629 12.8639 0.136889 12.9697 0.186762 13.0645C0.58821 13.828 1.45017 14.536 2.31409 15.0536C3.18773 15.5771 4.2064 15.9909 5.02844 16.0704C5.22777 16.0896 5.42461 16.0144 5.5604 15.8673C5.76624 15.6441 6.11571 15.1235 6.37991 14.7191C6.49983 14.5356 6.61207 14.3604 6.70124 14.2201C7.58361 14.3808 8.69055 14.4735 10.09 14.4735C11.4879 14.4735 12.5939 14.3809 13.4758 14.2207C13.5649 14.3609 13.677 14.5359 13.7968 14.7191C14.061 15.1235 14.4105 15.6441 14.6162 15.8673C14.7521 16.0144 14.9489 16.0896 15.1482 16.0704C15.9702 15.9909 16.9889 15.5771 17.8626 15.0536C18.7265 14.536 19.5885 13.828 19.99 13.0645C20.0398 12.9697 20.065 12.8639 20.0634 12.7567C20.0301 10.6164 19.7717 8.35825 19.3014 6.47805C19.157 5.90042 18.9034 5.10101 18.5973 4.34247C18.2994 3.60447 17.92 2.82354 17.5018 2.34535C17.4518 2.28815 17.392 2.24033 17.3252 2.2041C16.3177 1.6577 14.6109 1.05261 13.4893 0.930446C13.4332 0.924326 13.3765 0.925673 13.3207 0.934446C13.0457 0.97766 12.8088 1.11943 12.6341 1.25139C12.4497 1.39071 12.2784 1.56223 12.1305 1.73575C11.9162 1.98725 11.7091 2.29317 11.5757 2.58299C11.1198 2.54667 10.6251 2.52666 10.09 2.52666C9.55357 2.52666 9.05788 2.54677 8.60113 2.58325C8.46768 2.29334 8.26053 1.98731 8.04619 1.73575C7.89832 1.56223 7.72701 1.39071 7.5426 1.25139C7.36792 1.11943 7.13104 0.97766 6.85599 0.934446ZM14.7808 13.8843C14.8093 13.9284 14.8386 13.9735 14.8684 14.0189C15.0458 14.2907 15.2216 14.5513 15.3577 14.7412C15.8866 14.6221 16.5593 14.3424 17.2048 13.9556C17.9293 13.5215 18.503 13.0224 18.7802 12.5985C18.7369 10.5901 18.489 8.50491 18.0597 6.78863C17.93 6.27011 17.695 5.52694 17.4104 4.82155C17.1424 4.15767 16.857 3.59549 16.6073 3.27226C15.7401 2.82291 14.3738 2.34775 13.4838 2.21982C13.4644 2.23118 13.4384 2.24802 13.4056 2.27273C13.3148 2.34133 13.2102 2.44221 13.1048 2.56593C13.0494 2.63089 12.9989 2.69613 12.9535 2.75931C13.3606 2.83374 13.7237 2.92279 14.0449 3.02163C14.9565 3.30213 15.6137 3.68718 15.9353 4.11599C16.1474 4.39877 16.0901 4.79991 15.8073 5.01199C15.5245 5.22407 15.1234 5.16677 14.9113 4.88399C14.8329 4.77947 14.4901 4.49786 13.6684 4.24502C12.8757 4.00113 11.7081 3.80666 10.09 3.80666C8.47189 3.80666 7.3042 4.00113 6.51152 4.24502C5.68981 4.49786 5.34703 4.77947 5.26864 4.88399C5.05656 5.16677 4.65541 5.22407 4.37264 5.01199C4.08987 4.79991 4.03256 4.39877 4.24464 4.11599C4.56625 3.68718 5.22345 3.30213 6.13508 3.02163C6.45555 2.92302 6.81759 2.83415 7.22352 2.75983C7.17812 2.6965 7.12741 2.63107 7.07191 2.56593C6.96648 2.44221 6.86188 2.34133 6.77105 2.27273C6.73835 2.24802 6.71229 2.23118 6.69287 2.21982C5.80283 2.34775 4.43663 2.82291 3.56936 3.27226C3.31965 3.59549 3.03431 4.15767 2.76636 4.82155C2.48165 5.52694 2.24667 6.27011 2.11697 6.78863C1.68769 8.50491 1.43978 10.5901 1.39645 12.5985C1.6736 13.0224 2.2474 13.5215 2.97195 13.9556C3.6174 14.3424 4.29001 14.6221 4.81904 14.7412C4.95511 14.5513 5.13084 14.2907 5.30837 14.0189C5.33832 13.9731 5.36781 13.9277 5.39659 13.8833C4.35025 13.5121 3.78812 13.0011 3.42416 12.4552C3.22809 12.1611 3.30757 11.7637 3.60167 11.5676C3.89577 11.3716 4.29312 11.451 4.48919 11.7452C4.83767 12.2679 5.74804 13.1935 10.09 13.1935C14.432 13.1935 15.3422 12.268 15.6908 11.7451C15.8869 11.451 16.2842 11.3716 16.5784 11.5676C16.8725 11.7637 16.952 12.1611 16.7558 12.4552C16.3916 13.0016 15.8288 13.5131 14.7808 13.8843ZM5.53063 7.84961C5.85547 7.49978 6.29632 7.30215 6.75673 7.29997C7.21715 7.30215 7.65801 7.49978 7.98285 7.84961C8.30769 8.19945 8.49007 8.67298 8.49007 9.16663C8.49007 9.66027 8.30769 10.1338 7.98285 10.4836C7.65801 10.8335 7.21715 11.0311 6.75673 11.0333C6.29632 11.0311 5.85547 10.8335 5.53063 10.4836C5.20577 10.1338 5.0234 9.66027 5.0234 9.16663C5.0234 8.67298 5.20577 8.19945 5.53063 7.84961ZM13.4218 7.29997C12.9614 7.30215 12.5205 7.49978 12.1957 7.84961C11.8708 8.19945 11.6884 8.67298 11.6884 9.16663C11.6884 9.66027 11.8708 10.1338 12.1957 10.4836C12.5205 10.8335 12.9614 11.0311 13.4218 11.0333C13.8822 11.0311 14.323 10.8335 14.6478 10.4836C14.9728 10.1338 15.1552 9.66027 15.1552 9.16663C15.1552 8.67298 14.9728 8.19945 14.6478 7.84961C14.323 7.49978 13.8822 7.30215 13.4218 7.29997Z" fill="white"/>
</svg>
