<svg width="24" height="25" viewBox="0 0 24 25" fill="none" xmlns="http://www.w3.org/2000/svg">
<path d="M11.3062 9.93935C11.4321 10.1951 11.6921 10.3573 11.9771 10.3581C12.2622 10.3588 12.523 10.1979 12.6502 9.94275L15.9263 3.3742C16.8632 1.49589 19.1771 0.711672 21.0968 1.64206C23.0107 2.56965 23.7888 4.84112 22.855 6.71325L15.4167 21.627C14.7688 22.9258 13.4225 23.7538 11.9425 23.7501C10.4625 23.7464 9.1205 22.9117 8.4794 21.6097L1.13642 6.69595C0.212367 4.81921 1.00207 2.55159 2.92086 1.63356C4.84542 0.712772 7.1552 1.50866 8.0823 3.39153L11.3062 9.93935Z" stroke="#94FFD2" stroke-width="1.5" stroke-linecap="round" stroke-linejoin="round"/>
</svg>
