<svg width="18" height="19" viewBox="0 0 18 19" fill="none" xmlns="http://www.w3.org/2000/svg">
<path fill-rule="evenodd" clip-rule="evenodd" d="M1.75664 0.833328C1.02027 0.833328 0.423309 1.43029 0.423309 2.16666V16.8333C0.423309 17.5697 1.02027 18.1667 1.75664 18.1667H16.4233C17.1597 18.1667 17.7566 17.5697 17.7566 16.8333V2.16666C17.7566 1.43029 17.1597 0.833328 16.4233 0.833328H1.75664ZM3.15664 7.5H5.68998V15.5H3.15664V7.5ZM5.85664 4.84C5.85664 5.63161 5.21492 6.27333 4.42331 6.27333C3.63171 6.27333 2.98998 5.63161 2.98998 4.84C2.98998 4.04838 3.63171 3.40666 4.42331 3.40666C5.21492 3.40666 5.85664 4.04838 5.85664 4.84ZM15.09 10.6428C15.09 8.2361 13.5345 7.30044 11.9893 7.30044C11.4833 7.2755 10.9796 7.38158 10.5283 7.60809C10.1856 7.78009 9.82684 8.17364 9.55019 8.85804H9.47903V7.50058H7.08998V15.5063H9.63152V11.2483C9.59478 10.8122 9.73434 10.2486 10.0199 9.91315C10.3054 9.57775 10.7138 9.49766 11.0235 9.45698H11.1201C11.9283 9.45698 12.5281 9.95734 12.5281 11.2182V15.5063H15.0696L15.09 10.6428Z" fill="white"/>
</svg>
