<svg width="24" height="24" viewBox="0 0 24 24" fill="none" xmlns="http://www.w3.org/2000/svg">
<path fill-rule="evenodd" clip-rule="evenodd" d="M16.8 5.80761V3.70584C16.8 3.44272 16.6565 3.20055 16.4257 3.07424C16.1948 2.94792 15.9135 2.95757 15.6919 3.09941L9.92847 6.78799C9.88985 6.81271 9.84495 6.82584 9.7991 6.82584H6.96C6.03216 6.82584 5.28 7.578 5.28 8.50584V14.7459C5.28 15.4438 5.70563 16.0424 6.3115 16.2961L3.57088 19.0367C3.28971 19.3179 3.28971 19.7738 3.57088 20.055C3.85206 20.3362 4.30794 20.3362 4.58912 20.055L20.4291 4.21496C20.7103 3.93378 20.7103 3.4779 20.4291 3.19672C20.1479 2.91555 19.6921 2.91555 19.4109 3.19672L16.8 5.80761ZM7.62176 14.9859H6.96C6.82745 14.9859 6.72 14.8784 6.72 14.7459V8.50584C6.72 8.37329 6.82745 8.26584 6.96 8.26584H9.7991C10.1201 8.26584 10.4343 8.17388 10.7047 8.00086L15.36 5.02147V7.24761L7.62176 14.9859Z" fill="#AFDEE9"/>
<path d="M15.36 18.2301L11.1458 15.5331L10.1033 16.5756L15.6919 20.1523C15.9135 20.294 16.1948 20.3037 16.4257 20.1774C16.6565 20.0511 16.8 19.8089 16.8 19.5458V9.87891L15.36 11.3189V18.2301Z" fill="#AFDEE9"/>
</svg>
