<svg width="18" height="19" viewBox="0 0 18 19" fill="none" xmlns="http://www.w3.org/2000/svg">
<path fill-rule="evenodd" clip-rule="evenodd" d="M2.95317 0.98291C3.35082 0.98291 3.67317 1.30527 3.67317 1.70291V7.94567C3.67317 8.3434 3.35082 8.66567 2.95317 8.66567C2.55552 8.66567 2.23317 8.3434 2.23317 7.94567V1.70291C2.23317 1.30527 2.55552 0.98291 2.95317 0.98291ZM15.0465 0.98291C15.4441 0.98291 15.7665 1.30527 15.7665 1.70291V9.86654C15.7665 10.2642 15.4441 10.5865 15.0465 10.5865C14.6488 10.5865 14.3265 10.2642 14.3265 9.86654V1.70291C14.3265 1.30527 14.6488 0.98291 15.0465 0.98291ZM8.99979 1.22291C9.39752 1.22291 9.71979 1.54527 9.71979 1.94291V6.26479H10.9198C11.3174 6.26479 11.6398 6.58714 11.6398 6.98479C11.6398 7.38243 11.3174 7.70481 10.9198 7.70481H7.07981C6.68216 7.70481 6.35981 7.38243 6.35981 6.98479C6.35981 6.58714 6.68216 6.26479 7.07981 6.26479H8.27979V1.94291C8.27979 1.54527 8.60216 1.22291 8.99979 1.22291ZM8.99979 9.62615C9.39743 9.62615 9.71979 9.94852 9.71979 10.3462V17.3094C9.71979 17.7071 9.39743 18.0294 8.99979 18.0294C8.60216 18.0294 8.27979 17.7071 8.27979 17.3094V10.3462C8.27979 9.94852 8.60216 9.62615 8.99979 9.62615ZM0.356232 11.3071C0.356232 10.9095 0.67859 10.5871 1.07623 10.5871H4.91981C5.31745 10.5871 5.63981 10.9095 5.63981 11.3071C5.63981 11.7047 5.31745 12.0271 4.91981 12.0271H3.67317V17.5495C3.67317 17.9471 3.35082 18.2695 2.95317 18.2695C2.55552 18.2695 2.23317 17.9471 2.23317 17.5495V12.0271H1.07623C0.67859 12.0271 0.356232 11.7047 0.356232 11.3071ZM12.3598 13.2276C12.3598 12.83 12.6822 12.5076 13.0798 12.5076H16.9198C17.3174 12.5076 17.6398 12.83 17.6398 13.2276C17.6398 13.6252 17.3174 13.9476 16.9198 13.9476H15.7665V17.5492C15.7665 17.9469 15.4441 18.2692 15.0465 18.2692C14.6488 18.2692 14.3265 17.9469 14.3265 17.5492V13.9476H13.0798C12.6822 13.9476 12.3598 13.6252 12.3598 13.2276Z" fill="#AFDEE9"/>
</svg>
