<svg width="24" height="24" viewBox="0 0 24 24" fill="none" xmlns="http://www.w3.org/2000/svg">
<path d="M10.1555 7.22654L9.32269 4.39518C9.20253 3.98661 8.82756 3.70605 8.4017 3.70605H7.20227H5.02745C4.5029 3.70605 4.07236 4.12745 4.09629 4.65145C4.2102 7.14566 4.92166 9.59959 6.17701 11.7633C7.54326 14.1182 9.50787 16.0828 11.8627 17.4491C14.0428 18.7139 16.4652 19.3844 18.9604 19.5201C19.4898 19.5489 19.92 19.1162 19.92 18.5861V15.2244C19.92 14.7985 19.6394 14.4235 19.2309 14.3034L16.3995 13.4706C16.0557 13.3695 15.6843 13.4682 15.4361 13.7268L14.5938 14.6042C14.3026 14.9075 13.8459 14.9893 13.4811 14.7801C11.5545 13.6754 9.95067 12.0715 8.84595 10.145C8.63678 9.78022 8.71854 9.32347 9.02189 9.03226L9.89929 8.18996C10.1578 7.9418 10.2566 7.57031 10.1555 7.22654Z" stroke="#AFDEE9" stroke-width="1.44" stroke-linejoin="round"/>
</svg>
