<svg width="24" height="24" viewBox="0 0 24 24" fill="none" xmlns="http://www.w3.org/2000/svg">
<path d="M12 12.5861V15.4661M12 12.5861C12 12.0559 11.5702 11.6261 11.04 11.6261H7.68002C7.14983 11.6261 6.72002 11.1963 6.72002 10.6661V7.78609M12 12.5861C12 12.0559 12.4298 11.6261 12.96 11.6261H16.32C16.8502 11.6261 17.28 11.1963 17.28 10.6661V7.78609M9.36002 5.38609C9.36002 6.84412 8.17805 8.02609 6.72002 8.02609C5.26199 8.02609 4.08002 6.84412 4.08002 5.38609C4.08002 3.92807 5.26199 2.74609 6.72002 2.74609C8.17805 2.74609 9.36002 3.92807 9.36002 5.38609ZM19.92 5.38609C19.92 6.84412 18.7381 8.02609 17.28 8.02609C15.822 8.02609 14.64 6.84412 14.64 5.38609C14.64 3.92807 15.822 2.74609 17.28 2.74609C18.7381 2.74609 19.92 3.92807 19.92 5.38609ZM14.64 17.8661C14.64 19.3241 13.4581 20.5061 12 20.5061C10.542 20.5061 9.36002 19.3241 9.36002 17.8661C9.36002 16.4081 10.542 15.2261 12 15.2261C13.4581 15.2261 14.64 16.4081 14.64 17.8661Z" stroke="#AFDEE9" stroke-width="1.44" stroke-linejoin="round"/>
</svg>
