<svg width="24" height="24" viewBox="0 0 24 24" fill="none" xmlns="http://www.w3.org/2000/svg">
<path d="M17.0398 13.7861H19.9219C20.452 13.7861 20.8819 13.3562 20.8819 12.8261V4.66605C20.8819 4.13587 20.452 3.70605 19.9219 3.70605H8.16187C7.63168 3.70605 7.20187 4.13587 7.20187 4.66605V7.54605M16.0819 7.54605H4.08187C3.55168 7.54605 3.12187 7.97587 3.12187 8.50605V16.6661C3.12187 17.1962 3.55168 17.6261 4.08187 17.6261H6.24187V20.0261L10.5619 17.6261H16.0819C16.612 17.6261 17.0419 17.1962 17.0419 16.6661V8.50605C17.0419 7.97587 16.612 7.54605 16.0819 7.54605Z" stroke="#AFDEE9" stroke-width="1.44" stroke-linecap="round" stroke-linejoin="round"/>
</svg>
