<svg width="24" height="24" viewBox="0 0 24 24" fill="none" xmlns="http://www.w3.org/2000/svg">
<path d="M19.92 11.626C19.92 10.1831 19.5342 8.83036 18.8601 7.66529M19.92 11.626C19.92 13.0688 19.5342 14.4214 18.8602 15.5865M19.92 11.626H14.16M19.92 11.626L21.84 11.6262M18.8601 7.66529L20.5217 6.70595M18.8601 7.66529C18.1646 6.46344 17.1625 5.46128 15.9607 4.76589M18.8602 15.5865L20.5217 16.5458M18.8602 15.5865C18.1647 16.7884 17.1626 17.7906 15.9607 18.4861M14.16 11.626C14.16 12.8189 13.1929 13.786 12 13.786C11.6065 13.786 11.2376 13.6807 10.9198 13.4968M14.16 11.626C14.16 10.433 13.1929 9.46595 12 9.46595C11.6065 9.46595 11.2376 9.57118 10.9198 9.75505M12 19.546C10.5571 19.546 9.20443 19.1602 8.03935 18.4861M12 19.546C13.4429 19.546 14.7956 19.1602 15.9607 18.4861M12 19.546V21.4662M8.03935 18.4861L7.08001 20.1476M8.03935 18.4861L10.9198 13.4968M8.03935 18.4861C6.8375 17.7906 5.83533 16.7885 5.13995 15.5866M15.9607 18.4861L16.92 20.1476M4.08001 11.626C4.08001 13.0688 4.46584 14.4215 5.13995 15.5866M4.08001 11.626C4.08001 10.183 4.46587 8.83026 5.14003 7.66515M4.08001 11.626H2.16M5.13995 15.5866L3.47832 16.546M5.14003 7.66515L3.47832 6.70577M5.14003 7.66515C5.83541 6.46336 6.83755 5.46125 8.03935 4.76589M12 3.70595C10.5571 3.70595 9.20443 4.09177 8.03935 4.76589M12 3.70595C13.4429 3.70595 14.7956 4.09177 15.9607 4.76589M12 3.70595V1.78613M8.03935 4.76589L7.08001 3.10426M8.03935 4.76589L10.9198 9.75505M15.9607 4.76589L16.92 3.10426M10.9198 13.4968C10.2743 13.1234 9.84001 12.4254 9.84001 11.626C9.84001 10.8265 10.2743 10.1285 10.9198 9.75505" stroke="#AFDEE9" stroke-width="1.44" stroke-linecap="round" stroke-linejoin="round"/>
</svg>
